<svg width="1089" height="363" viewBox="0 0 1089 363" fill="none" xmlns="http://www.w3.org/2000/svg">
<path d="M201.216 126.394C212.225 123.812 214.148 115.043 217.872 108.2C236.657 73.7376 263.79 55.4207 304.632 58.6579C321.657 60.0102 339.05 56.773 356.238 55.3797C396.467 52.1425 411.773 62.6737 422.577 101.643C424.746 109.47 425.851 117.584 427.979 125.41C429.78 132.008 429.698 140.777 438.128 142.621C446.559 144.465 450.078 136.597 453.761 130.696C464.525 113.404 475.82 96.3983 485.601 78.573C501.234 49.8888 524.479 35.2597 557.137 35.3417C593.764 35.3417 630.392 34.85 667.019 35.5466C713.059 36.4481 725.787 48.3315 733.562 93.6936C735.199 103.078 731.884 116.641 743.589 120.329C756.439 124.427 764.051 112.42 769.985 103.569C786.109 80.1301 801.415 56.0354 816.148 31.6947C830.881 7.35407 852.98 -2.93128 880.686 0.715717C930.164 7.27212 979.928 8.50142 1029.69 10.7962C1077.37 13.0089 1099.75 39.1936 1084 83.1625C1060.06 150.079 1034.89 217.077 984.552 270.594C931.351 327.348 869.227 326.364 820.854 265.185C807.513 248.261 798.55 248.794 784.391 261.292C763.724 279.281 743.139 297.516 718.911 310.793C663.991 340.788 619.178 334.15 581.691 284.403C562.948 259.489 553.044 263.914 534.178 282.764C505.735 311.448 478.725 342.591 438.374 356.319C383.821 374.882 328.164 354.188 306.392 301.409C294.401 272.233 283.638 275.634 263.012 290.632C242.386 305.63 219.96 320.996 194.75 330.462C94.5668 368.038 1.6273 304.359 0.0312435 197.695C-0.582624 158.397 7.97062 120.821 15.0096 82.9575C20.3707 54.2733 39.0732 39.5214 69.521 40.7917C92.8889 41.7752 116.339 40.7918 139.707 41.5703C189.798 43.0455 203.426 58.6579 198.065 107.831C197.41 113.732 194.955 119.673 201.216 126.394Z" fill="#170422"/>
</svg>
